<mxfile host="65bd71144e">
    <diagram id="oeM8XC7AbUKs3Uo_dcaq" name="Page-1">
        <mxGraphModel dx="1073" dy="670" grid="1" gridSize="10" guides="1" tooltips="1" connect="1" arrows="1" fold="1" page="1" pageScale="1" pageWidth="850" pageHeight="1100" math="0" shadow="0">
            <root>
                <mxCell id="0"/>
                <mxCell id="1" parent="0"/>
                <mxCell id="35" value="" style="edgeStyle=none;html=1;fontSize=36;fontColor=#FFFFFF;strokeColor=#FFFFFF;entryX=0;entryY=0.5;entryDx=0;entryDy=0;" parent="1" source="33" target="56" edge="1">
                    <mxGeometry relative="1" as="geometry">
                        <mxPoint x="221.92953728989175" y="576.9917178740325" as="targetPoint"/>
                    </mxGeometry>
                </mxCell>
                <mxCell id="33" value="&lt;font style=&quot;font-size: 36px;&quot; color=&quot;#ffffff&quot;&gt;K&lt;/font&gt;" style="ellipse;whiteSpace=wrap;html=1;aspect=fixed;labelBackgroundColor=none;fontColor=#000000;fillColor=none;strokeColor=#FFFFFF;" parent="1" vertex="1">
                    <mxGeometry x="60" y="520" width="80" height="80" as="geometry"/>
                </mxCell>
                <mxCell id="43" value="" style="edgeStyle=none;html=1;strokeColor=#FFFFFF;fontSize=36;fontColor=#FF0000;entryX=0;entryY=0.75;entryDx=0;entryDy=0;" parent="1" source="42" target="56" edge="1">
                    <mxGeometry relative="1" as="geometry">
                        <mxPoint x="227.8234523174615" y="630.6199450842485" as="targetPoint"/>
                    </mxGeometry>
                </mxCell>
                <mxCell id="42" value="&lt;font color=&quot;#ffffff&quot;&gt;V&lt;/font&gt;" style="ellipse;whiteSpace=wrap;html=1;aspect=fixed;labelBackgroundColor=none;strokeColor=#FFFFFF;fontSize=36;fontColor=#FF0000;fillColor=none;" parent="1" vertex="1">
                    <mxGeometry x="60" y="650" width="80" height="80" as="geometry"/>
                </mxCell>
                <mxCell id="54" style="edgeStyle=none;html=1;exitX=1;exitY=1;exitDx=0;exitDy=0;entryX=0;entryY=0.25;entryDx=0;entryDy=0;strokeColor=#FFFFFF;" parent="1" source="53" target="56" edge="1">
                    <mxGeometry relative="1" as="geometry">
                        <mxPoint x="241.38467576148673" y="538.6254443740006" as="targetPoint"/>
                    </mxGeometry>
                </mxCell>
                <mxCell id="53" value="&lt;font color=&quot;#ffffff&quot;&gt;Q&lt;/font&gt;" style="ellipse;whiteSpace=wrap;html=1;aspect=fixed;labelBackgroundColor=none;strokeColor=#FFFFFF;fontSize=36;fontColor=#FF0000;fillColor=none;" parent="1" vertex="1">
                    <mxGeometry x="60" y="370" width="80" height="80" as="geometry"/>
                </mxCell>
                <mxCell id="59" value="" style="edgeStyle=none;html=1;fontSize=24;fontColor=#FFFFFF;strokeColor=#FFFFFF;" parent="1" source="56" target="58" edge="1">
                    <mxGeometry relative="1" as="geometry"/>
                </mxCell>
                <mxCell id="56" value="&lt;font style=&quot;&quot; color=&quot;#ffffff&quot;&gt;&lt;b style=&quot;font-size: 36px;&quot;&gt;Attention&lt;/b&gt;&lt;br&gt;&lt;font style=&quot;font-size: 24px;&quot;&gt;(Blackbox)&lt;/font&gt;&lt;br&gt;&lt;/font&gt;" style="whiteSpace=wrap;html=1;fillColor=none;strokeColor=#FFFFFF;fontColor=#000000;labelBackgroundColor=none;" parent="1" vertex="1">
                    <mxGeometry x="270" y="510" width="240" height="100" as="geometry"/>
                </mxCell>
                <mxCell id="58" value="&lt;font color=&quot;#ffffff&quot; style=&quot;font-size: 36px;&quot;&gt;O&lt;/font&gt;" style="ellipse;whiteSpace=wrap;html=1;fillColor=none;strokeColor=#FFFFFF;fontColor=#000000;labelBackgroundColor=none;" parent="1" vertex="1">
                    <mxGeometry x="610" y="520" width="80" height="80" as="geometry"/>
                </mxCell>
            </root>
        </mxGraphModel>
    </diagram>
</mxfile>